<svg xmlns="http://www.w3.org/2000/svg" xmlns:xlink="http://www.w3.org/1999/xlink" version="1.1" data-diagram-type="DESCRIPTION" style="width:1712px;height:733px;background:#FFFFFF;" width="1712px" height="733px" viewBox="0 0 1712 733" zoomAndPan="magnify" preserveAspectRatio="none" contentStyleType="text/css"><?plantuml 1.2026.7?><defs/><g font-family="sans-serif" lengthAdjust="spacing"><g class="title" data-source-line="3"><text x="606.221" y="35.421" fill="#000" font-size="22" textLength="498.233" font-weight="700" font-family="Verdana">Event System - Component Architecture</text></g><!--cluster Event Dispatchers--><g class="cluster" data-qualified-name="Event Dispatchers" id="ent0001" data-source-line="5"><path d="M603.5,245.799 L748.13,245.799 A3.75,3.75 0 0 1 750.63,248.299 L757.63,268.096 L1097.5,268.096 A2.5,2.5 0 0 1 1100,270.596 L1100,349.699 A2.5,2.5 0 0 1 1097.5,352.199 L603.5,352.199 A2.5,2.5 0 0 1 601,349.699 L601,248.299 A2.5,2.5 0 0 1 603.5,245.799" style="stroke:#000;stroke-width:1;" fill="#E6F2FF"/><line x1="601" y1="268.096" x2="757.63" y2="268.096" style="stroke:#000;stroke-width:1;"/><text x="605" y="260.794" fill="#000" font-size="14" textLength="143.63" font-weight="700" font-family="Verdana">Event Dispatchers</text></g><!--cluster Event Publishers--><g class="cluster" data-qualified-name="Event Publishers" id="ent0006" data-source-line="14"><path d="M226.5,96.949 L360.097,96.949 A3.75,3.75 0 0 1 362.597,99.449 L369.597,119.246 L767.5,119.246 A2.5,2.5 0 0 1 770,121.746 L770,191.749 A2.5,2.5 0 0 1 767.5,194.249 L226.5,194.249 A2.5,2.5 0 0 1 224,191.749 L224,99.449 A2.5,2.5 0 0 1 226.5,96.949" style="stroke:#000;stroke-width:1;" fill="#FFE6E6"/><line x1="224" y1="119.246" x2="369.597" y2="119.246" style="stroke:#000;stroke-width:1;"/><text x="228" y="111.944" fill="#000" font-size="14" textLength="132.597" font-weight="700" font-family="Verdana">Event Publishers</text></g><!--cluster Events--><g class="cluster" data-qualified-name="Events" id="ent0009" data-source-line="19"><path d="M13.5,602.749 L67.677,602.749 A3.75,3.75 0 0 1 70.177,605.249 L77.177,625.046 L579.5,625.046 A2.5,2.5 0 0 1 582,627.546 L582,713.839 A2.5,2.5 0 0 1 579.5,716.339 L13.5,716.339 A2.5,2.5 0 0 1 11,713.839 L11,605.249 A2.5,2.5 0 0 1 13.5,602.749" style="stroke:#000;stroke-width:1;" fill="#FFF9E6"/><line x1="11" y1="625.046" x2="77.177" y2="625.046" style="stroke:#000;stroke-width:1;"/><text x="15" y="617.744" fill="#000" font-size="14" textLength="53.177" font-weight="700" font-family="Verdana">Events</text></g><!--cluster Event Subscribers--><g class="cluster" data-qualified-name="Event Subscribers" id="ent0012" data-source-line="24"><path d="M580.5,401.199 L724.378,401.199 A3.75,3.75 0 0 1 726.878,403.699 L733.878,423.496 L1138.5,423.496 A2.5,2.5 0 0 1 1141,425.996 L1141,512.289 A2.5,2.5 0 0 1 1138.5,514.789 L580.5,514.789 A2.5,2.5 0 0 1 578,512.289 L578,403.699 A2.5,2.5 0 0 1 580.5,401.199" style="stroke:#000;stroke-width:1;" fill="#E6FFE6"/><line x1="578" y1="423.496" x2="733.878" y2="423.496" style="stroke:#000;stroke-width:1;"/><text x="582" y="416.194" fill="#000" font-size="14" textLength="142.878" font-weight="700" font-family="Verdana">Event Subscribers</text></g><!--cluster Business Services--><g class="cluster" data-qualified-name="Business Services" id="ent0015" data-source-line="29"><path d="M608.5,610.889 L750.806,610.889 A3.75,3.75 0 0 1 753.306,613.389 L760.306,633.186 L1165.5,633.186 A2.5,2.5 0 0 1 1168,635.686 L1168,705.689 A2.5,2.5 0 0 1 1165.5,708.189 L608.5,708.189 A2.5,2.5 0 0 1 606,705.689 L606,613.389 A2.5,2.5 0 0 1 608.5,610.889" style="stroke:#000;stroke-width:1;" fill="#F0E6FF"/><line x1="606" y1="633.186" x2="760.306" y2="633.186" style="stroke:#000;stroke-width:1;"/><text x="610" y="625.884" fill="#000" font-size="14" textLength="141.306" font-weight="700" font-family="Verdana">Business Services</text></g><!--cluster DB--><g class="cluster" data-qualified-name="DB" id="ent0019" data-source-line="35"><path d="M1192,605.889 C1192,595.889 1411.5,595.889 1411.5,595.889 C1411.5,595.889 1631,595.889 1631,605.889 L1631,698.189 C1631,708.189 1411.5,708.189 1411.5,708.189 C1411.5,708.189 1192,708.189 1192,698.189 L1192,605.889" style="stroke:#000;stroke-width:1;" fill="#FFF"/><path d="M1192,605.889 C1192,615.889 1411.5,615.889 1411.5,615.889 C1411.5,615.889 1631,615.889 1631,605.889" style="stroke:#000;stroke-width:1;" fill="none"/><text x="1374.248" y="630.884" fill="#000" font-size="14" textLength="74.505" font-weight="700" font-family="Verdana">Database</text></g><!--entity Symfony--><g class="entity" data-qualified-name="Event Dispatchers.Symfony" id="ent0002" data-source-line="6"><rect x="617.06" y="285.349" width="221.877" height="46.297" fill="#FFF" style="stroke:#000;stroke-width:1;" rx="2.5" ry="2.5"/><rect x="818.937" y="290.349" width="15" height="10" fill="#FFF" style="stroke:#000;stroke-width:1;"/><rect x="816.937" y="292.349" width="4" height="2" fill="#FFF" style="stroke:#000;stroke-width:1;"/><rect x="816.937" y="296.349" width="4" height="2" fill="#FFF" style="stroke:#000;stroke-width:1;"/><text x="632.06" y="318.344" fill="#000" font-size="14" textLength="181.877" font-family="Verdana">Symfony EventDispatcher</text></g><g class="entity" data-qualified-name="Event Dispatchers.GMN3" id="ent0004" data-source-line="8"><path d="M874.39,280.799 L874.39,304.499 L839.28,308.499 L874.39,312.499 L874.39,336.198 A0,0 0 0 0 874.39,336.198 L1083.617,336.198 A0,0 0 0 0 1083.617,336.198 L1083.617,290.799 L1073.617,280.799 L874.39,280.799 A0,0 0 0 0 874.39,280.799" style="stroke:#000;stroke-width:1;" fill="#FFF"/><path d="M1073.617,280.799 L1073.617,290.799 L1083.617,290.799 L1073.617,280.799" style="stroke:#000;stroke-width:1;" fill="#FFF"/><text x="880.39" y="297.866" fill="#000" font-size="13" textLength="128.102" font-family="Verdana">OXID uses Symfony</text><text x="880.39" y="312.999" fill="#000" font-size="13" textLength="185.358" font-family="Verdana">EventDispatcher component</text><text x="880.39" y="328.132" fill="#000" font-size="13" textLength="188.227" font-family="Verdana">for event-driven architecture</text></g><!--entity Ajax--><g class="entity" data-qualified-name="Event Publishers.Ajax" id="ent0007" data-source-line="15"><rect x="240.29" y="131.949" width="201.424" height="46.297" fill="#FFF" style="stroke:#000;stroke-width:1;" rx="2.5" ry="2.5"/><rect x="421.714" y="136.949" width="15" height="10" fill="#FFF" style="stroke:#000;stroke-width:1;"/><rect x="419.714" y="138.949" width="4" height="2" fill="#FFF" style="stroke:#000;stroke-width:1;"/><rect x="419.714" y="142.949" width="4" height="2" fill="#FFF" style="stroke:#000;stroke-width:1;"/><text x="255.29" y="164.944" fill="#000" font-size="14" textLength="161.424" font-family="Verdana">AjaxPaymentController</text></g><!--entity OrderSub--><g class="entity" data-qualified-name="Event Publishers.OrderSub" id="ent0008" data-source-line="16"><rect x="476.43" y="131.949" width="277.146" height="46.297" fill="#FFF" style="stroke:#000;stroke-width:1;" rx="2.5" ry="2.5"/><rect x="733.576" y="136.949" width="15" height="10" fill="#FFF" style="stroke:#000;stroke-width:1;"/><rect x="731.576" y="138.949" width="4" height="2" fill="#FFF" style="stroke:#000;stroke-width:1;"/><rect x="731.576" y="142.949" width="4" height="2" fill="#FFF" style="stroke:#000;stroke-width:1;"/><text x="491.43" y="164.944" fill="#000" font-size="14" textLength="237.146" font-family="Verdana">PayPalOrderCompletedSubscriber</text></g><!--entity OrderEvent--><g class="entity" data-qualified-name="Events.OrderEvent" id="ent0010" data-source-line="20"><rect x="26.64" y="637.749" width="242.713" height="62.594" fill="#FFF" style="stroke:#000;stroke-width:1;" rx="2.5" ry="2.5"/><rect x="249.353" y="642.749" width="15" height="10" fill="#FFF" style="stroke:#000;stroke-width:1;"/><rect x="247.353" y="644.749" width="4" height="2" fill="#FFF" style="stroke:#000;stroke-width:1;"/><rect x="247.353" y="648.749" width="4" height="2" fill="#FFF" style="stroke:#000;stroke-width:1;"/><text x="41.64" y="670.744" fill="#000" font-size="14" textLength="202.713" font-family="Verdana">PayPalOrderCompletedEvent</text><text x="41.64" y="687.041" fill="#000" font-size="14" textLength="57.237" font-family="Verdana">«Event»</text></g><!--entity VaultEvent--><g class="entity" data-qualified-name="Events.VaultEvent" id="ent0011" data-source-line="21"><rect x="304.43" y="637.749" width="261.149" height="62.594" fill="#FFF" style="stroke:#000;stroke-width:1;" rx="2.5" ry="2.5"/><rect x="545.579" y="642.749" width="15" height="10" fill="#FFF" style="stroke:#000;stroke-width:1;"/><rect x="543.579" y="644.749" width="4" height="2" fill="#FFF" style="stroke:#000;stroke-width:1;"/><rect x="543.579" y="648.749" width="4" height="2" fill="#FFF" style="stroke:#000;stroke-width:1;"/><text x="319.43" y="670.744" fill="#000" font-size="14" textLength="221.149" font-family="Verdana">PayPalVaultingSucceededEvent</text><text x="319.43" y="687.041" fill="#000" font-size="14" textLength="57.237" font-family="Verdana">«Event»</text></g><!--entity OrderEventSub--><g class="entity" data-qualified-name="Event Subscribers.OrderEventSub" id="ent0013" data-source-line="25"><rect x="594.43" y="436.199" width="277.146" height="62.594" fill="#FFF" style="stroke:#000;stroke-width:1;" rx="2.5" ry="2.5"/><rect x="851.576" y="441.199" width="15" height="10" fill="#FFF" style="stroke:#000;stroke-width:1;"/><rect x="849.576" y="443.199" width="4" height="2" fill="#FFF" style="stroke:#000;stroke-width:1;"/><rect x="849.576" y="447.199" width="4" height="2" fill="#FFF" style="stroke:#000;stroke-width:1;"/><text x="609.43" y="469.194" fill="#000" font-size="14" textLength="237.146" font-family="Verdana">PayPalOrderCompletedSubscriber</text><text x="609.43" y="485.491" fill="#000" font-size="14" textLength="91.67" font-family="Verdana">«Subscriber»</text></g><!--entity VaultEventSub--><g class="entity" data-qualified-name="Event Subscribers.VaultEventSub" id="ent0014" data-source-line="26"><rect x="906.59" y="436.199" width="218.814" height="62.594" fill="#FFF" style="stroke:#000;stroke-width:1;" rx="2.5" ry="2.5"/><rect x="1105.404" y="441.199" width="15" height="10" fill="#FFF" style="stroke:#000;stroke-width:1;"/><rect x="1103.404" y="443.199" width="4" height="2" fill="#FFF" style="stroke:#000;stroke-width:1;"/><rect x="1103.404" y="447.199" width="4" height="2" fill="#FFF" style="stroke:#000;stroke-width:1;"/><text x="921.59" y="469.194" fill="#000" font-size="14" textLength="178.814" font-family="Verdana">PayPalVaultingSubscriber</text><text x="921.59" y="485.491" fill="#000" font-size="14" textLength="91.67" font-family="Verdana">«Subscriber»</text></g><!--entity Payment--><g class="entity" data-qualified-name="Business Services.Payment" id="ent0016" data-source-line="30"><rect x="621.94" y="645.889" width="158.111" height="46.297" fill="#FFF" style="stroke:#000;stroke-width:1;" rx="2.5" ry="2.5"/><rect x="760.051" y="650.889" width="15" height="10" fill="#FFF" style="stroke:#000;stroke-width:1;"/><rect x="758.051" y="652.889" width="4" height="2" fill="#FFF" style="stroke:#000;stroke-width:1;"/><rect x="758.051" y="656.889" width="4" height="2" fill="#FFF" style="stroke:#000;stroke-width:1;"/><text x="636.94" y="678.884" fill="#000" font-size="14" textLength="118.111" font-family="Verdana">Payment Service</text></g><!--entity OrderRepo--><g class="entity" data-qualified-name="Business Services.OrderRepo" id="ent0017" data-source-line="31"><rect x="815.45" y="645.889" width="155.104" height="46.297" fill="#FFF" style="stroke:#000;stroke-width:1;" rx="2.5" ry="2.5"/><rect x="950.554" y="650.889" width="15" height="10" fill="#FFF" style="stroke:#000;stroke-width:1;"/><rect x="948.554" y="652.889" width="4" height="2" fill="#FFF" style="stroke:#000;stroke-width:1;"/><rect x="948.554" y="656.889" width="4" height="2" fill="#FFF" style="stroke:#000;stroke-width:1;"/><text x="830.45" y="678.884" fill="#000" font-size="14" textLength="115.104" font-family="Verdana">OrderRepository</text></g><!--entity UserRepo--><g class="entity" data-qualified-name="Business Services.UserRepo" id="ent0018" data-source-line="32"><rect x="1005.51" y="645.889" width="146.982" height="46.297" fill="#FFF" style="stroke:#000;stroke-width:1;" rx="2.5" ry="2.5"/><rect x="1132.492" y="650.889" width="15" height="10" fill="#FFF" style="stroke:#000;stroke-width:1;"/><rect x="1130.492" y="652.889" width="4" height="2" fill="#FFF" style="stroke:#000;stroke-width:1;"/><rect x="1130.492" y="656.889" width="4" height="2" fill="#FFF" style="stroke:#000;stroke-width:1;"/><text x="1020.51" y="678.884" fill="#000" font-size="14" textLength="106.982" font-family="Verdana">UserRepository</text></g><!--entity Orders--><g class="entity" data-qualified-name="DB.Orders" id="ent0020" data-source-line="36"><rect x="1207.79" y="645.889" width="94.428" height="46.297" fill="#FFF" style="stroke:#000;stroke-width:1;" rx="2.5" ry="2.5"/><rect x="1282.218" y="650.889" width="15" height="10" fill="#FFF" style="stroke:#000;stroke-width:1;"/><rect x="1280.218" y="652.889" width="4" height="2" fill="#FFF" style="stroke:#000;stroke-width:1;"/><rect x="1280.218" y="656.889" width="4" height="2" fill="#FFF" style="stroke:#000;stroke-width:1;"/><text x="1222.79" y="678.884" fill="#000" font-size="14" textLength="54.428" font-family="Verdana">oxorder</text></g><!--entity PayPalOrders--><g class="entity" data-qualified-name="DB.PayPalOrders" id="ent0021" data-source-line="37"><rect x="1337.38" y="645.889" width="155.24" height="46.297" fill="#FFF" style="stroke:#000;stroke-width:1;" rx="2.5" ry="2.5"/><rect x="1472.62" y="650.889" width="15" height="10" fill="#FFF" style="stroke:#000;stroke-width:1;"/><rect x="1470.62" y="652.889" width="4" height="2" fill="#FFF" style="stroke:#000;stroke-width:1;"/><rect x="1470.62" y="656.889" width="4" height="2" fill="#FFF" style="stroke:#000;stroke-width:1;"/><text x="1352.38" y="678.884" fill="#000" font-size="14" textLength="115.24" font-family="Verdana">oscpaypal_order</text></g><!--entity Users--><g class="entity" data-qualified-name="DB.Users" id="ent0022" data-source-line="38"><rect x="1527.31" y="645.889" width="87.387" height="46.297" fill="#FFF" style="stroke:#000;stroke-width:1;" rx="2.5" ry="2.5"/><rect x="1594.697" y="650.889" width="15" height="10" fill="#FFF" style="stroke:#000;stroke-width:1;"/><rect x="1592.697" y="652.889" width="4" height="2" fill="#FFF" style="stroke:#000;stroke-width:1;"/><rect x="1592.697" y="656.889" width="4" height="2" fill="#FFF" style="stroke:#000;stroke-width:1;"/><text x="1542.31" y="678.884" fill="#000" font-size="14" textLength="47.387" font-family="Verdana">oxuser</text></g><g class="entity" data-qualified-name="GMN37" id="ent0038" data-source-line="63"><path d="M788.38,127.399 L788.38,182.798 L1073.614,182.798 L1073.614,137.399 L1063.614,127.399 L788.38,127.399" style="stroke:#000;stroke-width:1;" fill="#FFF"/><path d="M1063.614,127.399 L1063.614,137.399 L1073.614,137.399 L1063.614,127.399" style="stroke:#000;stroke-width:1;" fill="#FFF"/><text x="794.38" y="144.466" fill="#000" font-size="13" textLength="115.388" font-weight="700" font-family="Verdana">Event Publisher</text><text x="794.38" y="159.599" fill="#000" font-size="13" textLength="264.234" font-family="Verdana">Dispatches PayPalOrderCompletedEvent</text><text x="794.38" y="174.732" fill="#000" font-size="13" textLength="195.597" font-family="Verdana">after successful order capture</text></g><g class="entity" data-qualified-name="GMN40" id="ent0041" data-source-line="69"><path d="M1160.49,417.099 L1160.49,517.896 L1407.511,517.896 L1407.511,427.099 L1397.511,417.099 L1160.49,417.099" style="stroke:#000;stroke-width:1;" fill="#FFF"/><path d="M1397.511,417.099 L1397.511,427.099 L1407.511,427.099 L1397.511,417.099" style="stroke:#000;stroke-width:1;" fill="#FFF"/><text x="1166.49" y="434.166" fill="#000" font-size="13" textLength="226.021" font-weight="700" font-family="Verdana">Multi-responsibility Subscriber</text><text x="1166.49" y="449.299" fill="#000" font-size="13" textLength="145.476" font-family="Verdana">1. Marks order as paid</text><text x="1166.49" y="464.432" fill="#000" font-size="13" textLength="140.201" font-family="Verdana">2. Sets transaction ID</text><text x="1166.49" y="479.565" fill="#000" font-size="13" textLength="145.311" font-family="Verdana">3. Tracks PayPal order</text><text x="1166.49" y="494.698" fill="#000" font-size="13" textLength="182.571" font-family="Verdana">4. Sends confirmation email</text><text x="1166.49" y="509.83" fill="#000" font-size="13" textLength="186.405" font-family="Verdana">5. Dispatches vaulting event</text></g><g class="entity" data-qualified-name="GMN43" id="ent0044" data-source-line="78"><path d="M1442.32,439.799 L1442.32,495.198 L1697.675,495.198 L1697.675,449.799 L1687.675,439.799 L1442.32,439.799" style="stroke:#000;stroke-width:1;" fill="#FFF"/><path d="M1687.675,439.799 L1687.675,449.799 L1697.675,449.799 L1687.675,439.799" style="stroke:#000;stroke-width:1;" fill="#FFF"/><text x="1448.32" y="456.866" fill="#000" font-size="13" textLength="234.355" font-weight="700" font-family="Verdana">Single-responsibility Subscriber</text><text x="1448.32" y="471.999" fill="#000" font-size="13" textLength="169.057" font-family="Verdana">Saves PayPal customer ID</text><text x="1448.32" y="487.132" fill="#000" font-size="13" textLength="170.562" font-family="Verdana">to user record for vaulting</text></g><!--link Ajax to OrderEvent--><g class="link" data-entity-1="ent0007" data-entity-2="ent0010" id="lnk23" data-source-line="42" data-link-type="dependency"><path d="M332.58,178.429 C301.75,260.219 196.684,538.901 161.274,632.841" style="stroke:#000;stroke-width:1;stroke-dasharray:7,7;" fill="none" id="Ajax-to-OrderEvent"/><polygon points="159.51,637.519,166.427,630.509,161.274,632.841,158.942,627.687,159.51,637.519" fill="#000" style="stroke:#000;stroke-width:1;stroke-linejoin:miter;stroke-miterlimit:10;"/><text x="261.03" y="381.266" fill="#000" font-size="13" textLength="136.836" font-family="Verdana">creates &amp; dispatches</text></g><!--link Ajax to Symfony--><g class="link" data-entity-1="ent0007" data-entity-2="ent0002" id="lnk24" data-source-line="43" data-link-type="dependency"><path d="M398.52,178.599 C471.58,207.189 592.294,254.408 665.504,283.048" style="stroke:#000;stroke-width:1;" fill="none" id="Ajax-to-Symfony"/><polygon points="670.16,284.869,663.236,277.865,665.504,283.048,660.321,285.316,670.16,284.869" fill="#000" style="stroke:#000;stroke-width:1;stroke-linejoin:miter;stroke-miterlimit:10;"/><text x="523.9" y="225.866" fill="#000" font-size="13" textLength="102.508" font-family="Verdana">dispatch(event)</text></g><!--link Symfony to OrderEventSub--><g class="link" data-entity-1="ent0002" data-entity-2="ent0013" id="lnk25" data-source-line="45" data-link-type="dependency"><path d="M700.12,331.979 C686.04,346.199 673.07,365.569 679,385.199 C684.53,403.529 692.705,417.516 703.455,431.886" style="stroke:#000;stroke-width:1;" fill="none" id="Symfony-to-OrderEventSub"/><polygon points="706.45,435.889,704.262,426.287,703.455,431.886,697.856,431.079,706.45,435.889" fill="#000" style="stroke:#000;stroke-width:1;stroke-linejoin:miter;stroke-miterlimit:10;"/><text x="680" y="381.266" fill="#000" font-size="13" textLength="50.673" font-family="Verdana">triggers</text></g><!--link OrderEventSub to Symfony--><g class="link" data-entity-1="ent0013" data-entity-2="ent0002" id="lnk32" data-source-line="54" data-link-type="dependency"><path d="M734.87,435.919 C735.75,416.509 736.35,390.859 735,368.199 C734.29,356.209 733.415,347.876 731.975,336.976" style="stroke:#000;stroke-width:1;" fill="none" id="OrderEventSub-to-Symfony"/><polygon points="731.32,332.019,728.533,341.466,731.975,336.976,736.464,340.418,731.32,332.019" fill="#000" style="stroke:#000;stroke-width:1;stroke-linejoin:miter;stroke-miterlimit:10;"/><text x="736.64" y="381.266" fill="#000" font-size="13" textLength="159.352" font-family="Verdana">dispatch(vaulting event)</text></g><!--link OrderEventSub to OrderEvent--><g class="link" data-entity-1="ent0013" data-entity-2="ent0010" id="lnk26" data-source-line="46" data-link-type="dependency"><path d="M594.11,494.719 C504.28,514.309 386.07,545.119 287,587.889 C255.03,601.699 225.393,618.5 199.083,634.77" style="stroke:#000;stroke-width:1;" fill="none" id="OrderEventSub-to-OrderEvent"/><polygon points="194.83,637.399,204.588,636.068,199.083,634.77,200.381,629.264,194.83,637.399" fill="#000" style="stroke:#000;stroke-width:1;stroke-linejoin:miter;stroke-miterlimit:10;"/><text x="394.55" y="568.456" fill="#000" font-size="13" textLength="59.287" font-family="Verdana">listens to</text></g><!--link OrderEventSub to OrderRepo--><g class="link" data-entity-1="ent0013" data-entity-2="ent0017" id="lnk27" data-source-line="48" data-link-type="dependency"><path d="M726.1,499.069 C722.4,524.089 722.06,558.689 742,579.889 C759.22,598.209 775.06,577.609 798,587.889 C827.93,601.309 852.372,623.419 870.082,642.119" style="stroke:#000;stroke-width:1;" fill="none" id="OrderEventSub-to-OrderRepo"/><polygon points="873.52,645.749,870.236,636.464,870.082,642.119,864.427,641.965,873.52,645.749" fill="#000" style="stroke:#000;stroke-width:1;stroke-linejoin:miter;stroke-miterlimit:10;"/><text x="743" y="568.456" fill="#000" font-size="13" textLength="29.783" font-family="Verdana">uses</text></g><!--link OrderEventSub to Payment--><g class="link" data-entity-1="ent0013" data-entity-2="ent0016" id="lnk28" data-source-line="49" data-link-type="dependency"><path d="M701.29,499.139 C689.36,512.799 677.2,529.869 671,547.889 C659.53,581.229 672.757,616.732 685.417,641.122" style="stroke:#000;stroke-width:1;" fill="none" id="OrderEventSub-to-Payment"/><polygon points="687.72,645.559,687.124,635.729,685.417,641.122,680.023,639.414,687.72,645.559" fill="#000" style="stroke:#000;stroke-width:1;stroke-linejoin:miter;stroke-miterlimit:10;"/><text x="672" y="568.456" fill="#000" font-size="13" textLength="29.783" font-family="Verdana">uses</text></g><!--link OrderEventSub to Orders--><g class="link" data-entity-1="ent0013" data-entity-2="ent0020" id="lnk29" data-source-line="50" data-link-type="dependency"><path d="M750.7,499.159 C768.61,528.939 795.99,570.929 813,579.889 C847.9,598.299 1131.41,573.129 1168,587.889 C1197.33,599.729 1219.709,622.447 1235.389,641.767" style="stroke:#000;stroke-width:1;" fill="none" id="OrderEventSub-to-Orders"/><polygon points="1238.54,645.649,1235.974,636.141,1235.389,641.767,1229.763,641.182,1238.54,645.649" fill="#000" style="stroke:#000;stroke-width:1;stroke-linejoin:miter;stroke-miterlimit:10;"/><text x="814" y="568.456" fill="#000" font-size="13" textLength="52.578" font-family="Verdana">updates</text></g><!--link OrderEventSub to PayPalOrders--><g class="link" data-entity-1="ent0013" data-entity-2="ent0021" id="lnk30" data-source-line="51" data-link-type="dependency"><path d="M794.28,499.219 C819.04,512.769 847.3,529.739 871,547.889 C886.97,560.129 884.49,572.019 903,579.889 C945.64,598.039 1276.63,571.569 1320,587.889 C1351.1,599.599 1375.815,622.513 1393.245,641.873" style="stroke:#000;stroke-width:1;" fill="none" id="OrderEventSub-to-PayPalOrders"/><polygon points="1396.59,645.589,1393.541,636.224,1393.245,641.873,1387.595,641.577,1396.59,645.589" fill="#000" style="stroke:#000;stroke-width:1;stroke-linejoin:miter;stroke-miterlimit:10;"/><text x="904" y="568.456" fill="#000" font-size="13" textLength="52.578" font-family="Verdana">updates</text></g><!--link OrderEventSub to VaultEvent--><g class="link" data-entity-1="ent0013" data-entity-2="ent0011" id="lnk31" data-source-line="53" data-link-type="dependency"><path d="M613.84,499.219 C581.7,511.079 548.29,526.969 521,547.889 C489.65,571.929 467.289,606.133 452.549,633.083" style="stroke:#000;stroke-width:1;stroke-dasharray:7,7;" fill="none" id="OrderEventSub-to-VaultEvent"/><polygon points="450.15,637.469,457.978,631.493,452.549,633.083,450.959,627.654,450.15,637.469" fill="#000" style="stroke:#000;stroke-width:1;stroke-linejoin:miter;stroke-miterlimit:10;"/><text x="522" y="560.956" fill="#000" font-size="13" textLength="136.836" font-family="Verdana">creates &amp; dispatches</text><text x="554.757" y="576.089" fill="#000" font-size="13" textLength="71.322" font-family="Verdana">(if vaulted)</text></g><!--link Symfony to VaultEventSub--><g class="link" data-entity-1="ent0002" data-entity-2="ent0014" id="lnk33" data-source-line="56" data-link-type="dependency"><path d="M778.33,332.109 C801.84,341.939 830.44,352.859 857,360.199 C877.85,365.959 885.48,358.889 905,368.199 C938.69,384.259 966.446,409.989 987.106,432.459" style="stroke:#000;stroke-width:1;" fill="none" id="Symfony-to-VaultEventSub"/><polygon points="990.49,436.139,987.343,426.807,987.106,432.459,981.454,432.222,990.49,436.139" fill="#000" style="stroke:#000;stroke-width:1;stroke-linejoin:miter;stroke-miterlimit:10;"/><text x="933.76" y="381.266" fill="#000" font-size="13" textLength="50.673" font-family="Verdana">triggers</text></g><!--link VaultEventSub to VaultEvent--><g class="link" data-entity-1="ent0014" data-entity-2="ent0011" id="lnk34" data-source-line="57" data-link-type="dependency"><path d="M1011.14,499.139 C1005.18,525.469 992.28,561.949 965,579.889 C948.33,590.859 625.42,583.339 606,587.889 C563.39,597.889 523.09,616.838 490.1,634.998" style="stroke:#000;stroke-width:1;" fill="none" id="VaultEventSub-to-VaultEvent"/><polygon points="485.72,637.409,495.533,636.573,490.1,634.998,491.675,629.565,485.72,637.409" fill="#000" style="stroke:#000;stroke-width:1;stroke-linejoin:miter;stroke-miterlimit:10;"/><text x="993.98" y="568.456" fill="#000" font-size="13" textLength="59.287" font-family="Verdana">listens to</text></g><!--link VaultEventSub to UserRepo--><g class="link" data-entity-1="ent0014" data-entity-2="ent0018" id="lnk35" data-source-line="59" data-link-type="dependency"><path d="M1039.97,499.239 C1049.68,513.309 1060,530.659 1066,547.889 C1077.38,580.589 1079.478,616.049 1079.538,640.689" style="stroke:#000;stroke-width:1;" fill="none" id="VaultEventSub-to-UserRepo"/><polygon points="1079.55,645.689,1083.528,636.68,1079.538,640.689,1075.528,636.699,1079.55,645.689" fill="#000" style="stroke:#000;stroke-width:1;stroke-linejoin:miter;stroke-miterlimit:10;"/><text x="1075.13" y="568.456" fill="#000" font-size="13" textLength="29.783" font-family="Verdana">uses</text></g><!--link VaultEventSub to Users--><g class="link" data-entity-1="ent0014" data-entity-2="ent0022" id="lnk36" data-source-line="60" data-link-type="dependency"><path d="M1079.88,499.179 C1099.75,507.799 1121.97,516.519 1143,522.789 C1301.75,570.129 1368.59,501.599 1510,587.889 C1532.54,601.649 1547.282,622.689 1557.582,641.229" style="stroke:#000;stroke-width:1;" fill="none" id="VaultEventSub-to-Users"/><polygon points="1560.01,645.599,1559.136,635.789,1557.582,641.229,1552.143,639.675,1560.01,645.599" fill="#000" style="stroke:#000;stroke-width:1;stroke-linejoin:miter;stroke-miterlimit:10;"/><text x="1494.38" y="568.456" fill="#000" font-size="13" textLength="52.578" font-family="Verdana">updates</text></g><!--link Ajax to GMN37--><g class="link" data-entity-1="ent0007" data-entity-2="ent0038" id="lnk39" data-source-line="63" data-link-type="association"><path d="M369.77,131.499 C395.83,111.759 436.2,85.099 476.5,73.949 C535.61,57.609 692.56,60.969 752.5,73.949 C799.58,84.149 849.15,107.869 884.07,127.039" style="stroke:#000;stroke-width:1;stroke-dasharray:7,7;" fill="none" id="Ajax-GMN37"/></g><!--link OrderEventSub to GMN40--><g class="link" data-entity-1="ent0013" data-entity-2="ent0041" id="lnk42" data-source-line="69" data-link-type="association"><path d="M778.4,435.919 C812.05,414.529 859.95,388.139 906.5,376.699 C953.33,365.189 1076.87,364.419 1123.5,376.699 C1154.61,384.889 1186.03,400.639 1212.73,416.759" style="stroke:#000;stroke-width:1;stroke-dasharray:7,7;" fill="none" id="OrderEventSub-GMN40"/></g><!--link VaultEventSub to GMN43--><g class="link" data-entity-1="ent0014" data-entity-2="ent0044" id="lnk45" data-source-line="78" data-link-type="association"><path d="M1053.27,435.759 C1080.88,414.449 1120.5,388.219 1160.5,376.699 C1213.24,361.499 1354.38,362.869 1407.5,376.699 C1453.94,388.789 1501.18,417.409 1532.67,439.309" style="stroke:#000;stroke-width:1;stroke-dasharray:7,7;" fill="none" id="VaultEventSub-GMN43"/></g><?plantuml-src XPLlQzim4CRV-rFSEjZQGCBMROMD4cYR1FgYj3JR6AnZAF8vqIfBHf93JTbttqcsupznkhvfelj9zzmZtUMLss2Aa4acL1GvuIJ2V8lAmRAm3bCOmvLECwtyqeNX6-6GkznW56MCFx8rmb79puJDcECRDFO8Ni_F5gUB1Jn7G7y_bqMQQ5MK9pVWBs0MgbW0bNO8Hgmt3dJIYG3S_hYUGMxHzjPxPmAlvLRnH1j0punZ8-W_i7OLda0LXypHtxsYxlAL5BQgQR6OdytFwfek_h2dErQaX5rfvOoMigh8Hqg6udTCtfeOZNTHeiDucQyiDs9LmI58Q_l9ovIBpqtAeUC2-g3EpyE7wRGvD2oqDtvdkNH2hPSvvuZnWRs1AlVk-z68hovvyRAwXlTfcczxEhq3Wr9VtDzexJjucLkXqD9ZGRCL78EPxxpWbjmqb5G2uRnghGI2k7lCj1LEcw8HxDTAv9lT8-ebhoPcZgsO9JcpwjEHHsQNjGRzfFs1pT6sMhSyOqN6vEycthAtffwe7Smkg_Kfty8zIkQ4LdOZCXlvjmYJoRHbDNm1Rf0vwgGt4DUDKw7ZyRJkB-Bgw75ee9CegaCUwrmUmOuQT-rbT0DTb3XgA8VAWjFH8TGRIAJlzW6alhc3G6cIZsUnhtFuZ9sRBR17UkEQDtR0k0TrB1BOUWpZau5S0tvkg_SDGyPsNdNRs6wWY_QCtKVhXrdRDanqpEYEusgiZKQzqJWQqUfk07SUQdTA4SOIHoFQ-W5aRP9B2EyRECl2DDvDubxg_fmOZMwyVsE3bcQz5IiXXIjQqobeUZ-16sOURPM4sYHZ8gR0wOIwtf5HXYdBkEyMk9vHuCC4lXeQ8NKHvKuAVFGxL6pfrqKbmgIXmm1J9YH5FqtQzNVlzc1DtTdbQrhI9ed_AMh9jZkFWUVMwPHg2-gTzZThm20dtU67hzRIgFW7?></g></svg>