<svg xmlns="http://www.w3.org/2000/svg" xmlns:xlink="http://www.w3.org/1999/xlink" contentStyleType="text/css" data-diagram-type="SEQUENCE" height="925px" preserveAspectRatio="none" style="width:1485px;height:925px;background:#FFFFFF;" version="1.1" viewBox="0 0 1485 925" width="1485px" zoomAndPan="magnify"><title>PayPalVaultingSucceededEvent - Complete Flow</title><defs/><g><text fill="#000000" font-family="Verdana" font-size="22" font-weight="bold" lengthAdjust="spacing" textLength="600.6279" x="441.0225" y="35.4209">PayPalVaultingSucceededEvent - Complete Flow</text><g><title>PayPalOrderCompletedSubscriber</title><rect fill="#FFFFFF" height="251.5273" style="stroke:#000000;stroke-width:1;" width="10" x="140.5728" y="157.1055"/></g><g><title>Symfony</title><rect fill="#FFFFFF" height="29.1328" style="stroke:#000000;stroke-width:1;" width="10" x="427.5396" y="379.5"/></g><g><title>PayPalVaultingSubscriber</title><rect fill="#FFFFFF" height="339.5938" style="stroke:#000000;stroke-width:1;" width="10" x="645.0967" y="408.6328"/></g><g><title>UserRepository</title><rect fill="#FFFFFF" height="94.5313" style="stroke:#000000;stroke-width:1;" width="10" x="958.1162" y="574.2969"/></g><g><title>PayPalOrderCompletedSubscriber</title><rect fill="#000000" fill-opacity="0.00000" height="732.8516" width="8" x="141.5728" y="113.9063"/><line style="stroke:#000000;stroke-width:1;stroke-dasharray:5,5;" x1="145" x2="145" y1="113.9063" y2="846.7578"/></g><g><title>Symfony</title><rect fill="#000000" fill-opacity="0.00000" height="732.8516" width="8" x="428.5396" y="113.9063"/><line style="stroke:#000000;stroke-width:1;stroke-dasharray:5,5;" x1="431.5571" x2="431.5571" y1="113.9063" y2="846.7578"/></g><g><title>PayPalVaultingSubscriber</title><rect fill="#000000" fill-opacity="0.00000" height="732.8516" width="8" x="646.0967" y="113.9063"/><line style="stroke:#000000;stroke-width:1;stroke-dasharray:5,5;" x1="649.6895" x2="649.6895" y1="113.9063" y2="846.7578"/></g><g><title>UserRepository</title><rect fill="#000000" fill-opacity="0.00000" height="732.8516" width="8" x="959.1162" y="113.9063"/><line style="stroke:#000000;stroke-width:1;stroke-dasharray:5,5;" x1="962.625" x2="962.625" y1="113.9063" y2="846.7578"/></g><g><title>Database</title><rect fill="#000000" fill-opacity="0.00000" height="732.8516" width="8" x="1088.6631" y="113.9063"/><line style="stroke:#000000;stroke-width:1;stroke-dasharray:5,5;" x1="1092.2627" x2="1092.2627" y1="113.9063" y2="846.7578"/></g><g class="participant participant-head" data-participant="OrderSub"><rect fill="#FFFFFF" height="30.2969" rx="2.5" ry="2.5" style="stroke:#000000;stroke-width:1;" width="251.1455" x="20" y="82.6094"/><text fill="#000000" font-family="Verdana" font-size="14" lengthAdjust="spacing" textLength="237.1455" x="27" y="102.6045">PayPalOrderCompletedSubscriber</text></g><g class="participant participant-tail" data-participant="OrderSub"><rect fill="#FFFFFF" height="30.2969" rx="2.5" ry="2.5" style="stroke:#000000;stroke-width:1;" width="251.1455" x="20" y="845.7578"/><text fill="#000000" font-family="Verdana" font-size="14" lengthAdjust="spacing" textLength="237.1455" x="27" y="865.7529">PayPalOrderCompletedSubscriber</text></g><g class="participant participant-head" data-participant="Dispatcher"><rect fill="#FFFFFF" height="46.5938" rx="2.5" ry="2.5" style="stroke:#000000;stroke-width:1;" width="129.9648" x="367.5571" y="66.3125"/><text fill="#000000" font-family="Verdana" font-size="14" lengthAdjust="spacing" textLength="61.4619" x="401.8086" y="86.3076">Symfony</text><text fill="#000000" font-family="Verdana" font-size="14" lengthAdjust="spacing" textLength="115.9648" x="374.5571" y="102.6045">EventDispatcher</text></g><g class="participant participant-tail" data-participant="Dispatcher"><rect fill="#FFFFFF" height="46.5938" rx="2.5" ry="2.5" style="stroke:#000000;stroke-width:1;" width="129.9648" x="367.5571" y="845.7578"/><text fill="#000000" font-family="Verdana" font-size="14" lengthAdjust="spacing" textLength="61.4619" x="401.8086" y="865.7529">Symfony</text><text fill="#000000" font-family="Verdana" font-size="14" lengthAdjust="spacing" textLength="115.9648" x="374.5571" y="882.0498">EventDispatcher</text></g><g class="participant participant-head" data-participant="VaultSub"><rect fill="#FFFFFF" height="30.2969" rx="2.5" ry="2.5" style="stroke:#000000;stroke-width:1;" width="192.8145" x="553.6895" y="82.6094"/><text fill="#000000" font-family="Verdana" font-size="14" lengthAdjust="spacing" textLength="178.8145" x="560.6895" y="102.6045">PayPalVaultingSubscriber</text></g><g class="participant participant-tail" data-participant="VaultSub"><rect fill="#FFFFFF" height="30.2969" rx="2.5" ry="2.5" style="stroke:#000000;stroke-width:1;" width="192.8145" x="553.6895" y="845.7578"/><text fill="#000000" font-family="Verdana" font-size="14" lengthAdjust="spacing" textLength="178.8145" x="560.6895" y="865.7529">PayPalVaultingSubscriber</text></g><g class="participant participant-head" data-participant="UserRepository"><rect fill="#FFFFFF" height="30.2969" rx="2.5" ry="2.5" style="stroke:#000000;stroke-width:1;" width="120.9824" x="902.625" y="82.6094"/><text fill="#000000" font-family="Verdana" font-size="14" lengthAdjust="spacing" textLength="106.9824" x="909.625" y="102.6045">UserRepository</text></g><g class="participant participant-tail" data-participant="UserRepository"><rect fill="#FFFFFF" height="30.2969" rx="2.5" ry="2.5" style="stroke:#000000;stroke-width:1;" width="120.9824" x="902.625" y="845.7578"/><text fill="#000000" font-family="Verdana" font-size="14" lengthAdjust="spacing" textLength="106.9824" x="909.625" y="865.7529">UserRepository</text></g><g class="participant participant-head" data-participant="Database"><text fill="#000000" font-family="Verdana" font-size="14" lengthAdjust="spacing" textLength="66.8008" x="1056.2627" y="110.6045">Database</text><path d="M1074.6631,61.6094 C1074.6631,51.6094 1092.6631,51.6094 1092.6631,51.6094 C1092.6631,51.6094 1110.6631,51.6094 1110.6631,61.6094 L1110.6631,87.6094 C1110.6631,97.6094 1092.6631,97.6094 1092.6631,97.6094 C1092.6631,97.6094 1074.6631,97.6094 1074.6631,87.6094 L1074.6631,61.6094" fill="#FFFFFF" style="stroke:#000000;stroke-width:1;"/><path d="M1074.6631,61.6094 C1074.6631,71.6094 1092.6631,71.6094 1092.6631,71.6094 C1092.6631,71.6094 1110.6631,71.6094 1110.6631,61.6094" fill="none" style="stroke:#000000;stroke-width:1;"/></g><g class="participant participant-tail" data-participant="Database"><text fill="#000000" font-family="Verdana" font-size="14" lengthAdjust="spacing" textLength="66.8008" x="1056.2627" y="858.7529">Database</text><path d="M1074.6631,872.0547 C1074.6631,862.0547 1092.6631,862.0547 1092.6631,862.0547 C1092.6631,862.0547 1110.6631,862.0547 1110.6631,872.0547 L1110.6631,898.0547 C1110.6631,908.0547 1092.6631,908.0547 1092.6631,908.0547 C1092.6631,908.0547 1074.6631,908.0547 1074.6631,898.0547 L1074.6631,872.0547" fill="#FFFFFF" style="stroke:#000000;stroke-width:1;"/><path d="M1074.6631,872.0547 C1074.6631,882.0547 1092.6631,882.0547 1092.6631,882.0547 C1092.6631,882.0547 1110.6631,882.0547 1110.6631,872.0547" fill="none" style="stroke:#000000;stroke-width:1;"/></g><g><title>PayPalOrderCompletedSubscriber</title><rect fill="#FFFFFF" height="251.5273" style="stroke:#000000;stroke-width:1;" width="10" x="140.5728" y="157.1055"/></g><g><title>Symfony</title><rect fill="#FFFFFF" height="29.1328" style="stroke:#000000;stroke-width:1;" width="10" x="427.5396" y="379.5"/></g><g><title>PayPalVaultingSubscriber</title><rect fill="#FFFFFF" height="339.5938" style="stroke:#000000;stroke-width:1;" width="10" x="645.0967" y="408.6328"/></g><g><title>UserRepository</title><rect fill="#FFFFFF" height="94.5313" style="stroke:#000000;stroke-width:1;" width="10" x="958.1162" y="574.2969"/></g><g class="message" data-participant-1="OrderSub" data-participant-2="OrderSub"><line style="stroke:#000000;stroke-width:1;" x1="145.5728" x2="192.5728" y1="144.1055" y2="144.1055"/><line style="stroke:#000000;stroke-width:1;" x1="192.5728" x2="192.5728" y1="144.1055" y2="157.1055"/><line style="stroke:#000000;stroke-width:1;" x1="151.5728" x2="192.5728" y1="157.1055" y2="157.1055"/><polygon fill="#000000" points="161.5728,153.1055,151.5728,157.1055,161.5728,161.1055,157.5728,157.1055" style="stroke:#000000;stroke-width:1;"/><text fill="#000000" font-family="Verdana" font-size="13" lengthAdjust="spacing" textLength="115.8828" x="157.5728" y="139.0396">Vaulting detected</text></g><path d="M284.8828,128.9063 L284.8828,168.9063 L485.8828,168.9063 L485.8828,138.9063 L475.8828,128.9063 L284.8828,128.9063" fill="#FFFFFF" style="stroke:#000000;stroke-width:1;"/><path d="M475.8828,128.9063 L475.8828,138.9063 L485.8828,138.9063 L475.8828,128.9063" fill="#FFFFFF" style="stroke:#000000;stroke-width:1;"/><text fill="#000000" font-family="Verdana" font-size="13" lengthAdjust="spacing" textLength="180.667" x="290.8828" y="145.9731">$payPalCustomerId present</text><text fill="#000000" font-family="Verdana" font-size="13" lengthAdjust="spacing" textLength="168.5176" x="290.8828" y="161.106">in order capture response</text><rect fill="#FFFFFF" height="3" style="stroke:#FFFFFF;stroke-width:1;" width="1473.6729" x="5" y="194.7383"/><line style="stroke:#000000;stroke-width:0.5;" x1="5" x2="1478.6729" y1="194.7383" y2="194.7383"/><line style="stroke:#000000;stroke-width:0.5;" x1="5" x2="1478.6729" y1="197.7383" y2="197.7383"/><rect fill="#FFFFFF" height="23.1328" style="stroke:#000000;stroke-width:1;" width="280.189" x="601.7419" y="184.1719"/><text fill="#000000" font-family="Verdana" font-size="13" font-weight="bold" lengthAdjust="spacing" textLength="261.6631" x="607.7419" y="200.2388">Create and Dispatch Vaulting Event</text><g class="message" data-participant-1="OrderSub" data-participant-2="OrderSub"><line style="stroke:#000000;stroke-width:1;" x1="150.5728" x2="192.5728" y1="280.3359" y2="280.3359"/><line style="stroke:#000000;stroke-width:1;" x1="192.5728" x2="192.5728" y1="280.3359" y2="293.3359"/><line style="stroke:#000000;stroke-width:1;" x1="151.5728" x2="192.5728" y1="293.3359" y2="293.3359"/><polygon fill="#000000" points="161.5728,289.3359,151.5728,293.3359,161.5728,297.3359,157.5728,293.3359" style="stroke:#000000;stroke-width:1;"/><text fill="#000000" font-family="Verdana" font-size="13" lengthAdjust="spacing" textLength="252.9668" x="157.5728" y="275.27">Create PayPalVaultingSucceededEvent</text></g><path d="M431.9668,222.3047 L431.9668,337.3047 L714.9668,337.3047 L714.9668,232.3047 L704.9668,222.3047 L431.9668,222.3047" fill="#FFFFFF" style="stroke:#000000;stroke-width:1;"/><path d="M704.9668,222.3047 L704.9668,232.3047 L714.9668,232.3047 L704.9668,222.3047" fill="#FFFFFF" style="stroke:#000000;stroke-width:1;"/><text fill="#000000" font-family="Verdana" font-size="13" lengthAdjust="spacing" textLength="241.4268" x="437.9668" y="239.3716">new PayPalVaultingSucceededEvent(</text><text fill="#000000" font-family="Verdana" font-size="13" lengthAdjust="spacing" textLength="77.6255" x="446.2314" y="254.5044">user: $user,</text><text fill="#000000" font-family="Verdana" font-size="13" lengthAdjust="spacing" textLength="253.9063" x="446.2314" y="269.6372">payPalCustomerId: $payPalCustomerId</text><text fill="#000000" font-family="Verdana" font-size="13" lengthAdjust="spacing" textLength="5.0718" x="437.9668" y="284.77">)</text><text fill="#000000" font-family="Verdana" font-size="13" lengthAdjust="spacing" textLength="4.1323" x="437.9668" y="299.9028">&#160;</text><text fill="#000000" font-family="Verdana" font-size="13" lengthAdjust="spacing" textLength="144.1045" x="437.9668" y="315.0356">Example customer ID:</text><text fill="#000000" font-family="Verdana" font-size="13" lengthAdjust="spacing" textLength="168.4287" x="437.9668" y="330.1685">"customer_id_abc123xyz"</text><g class="message" data-participant-1="OrderSub" data-participant-2="Dispatcher"><polygon fill="#000000" points="415.5396,375.5,425.5396,379.5,415.5396,383.5,419.5396,379.5" style="stroke:#000000;stroke-width:1;"/><line style="stroke:#000000;stroke-width:1;" x1="150.5728" x2="421.5396" y1="379.5" y2="379.5"/><text fill="#000000" font-family="Verdana" font-size="13" lengthAdjust="spacing" textLength="101.5688" x="157.5728" y="359.3013">dispatch(event,</text><text fill="#000000" font-family="Verdana" font-size="13" lengthAdjust="spacing" textLength="212.748" x="157.5728" y="374.4341">'osc.paypal.vaulting.succeeded')</text></g><path d="M442,352.8008 L442,377.8008 L545,377.8008 L545,362.8008 L535,352.8008 L442,352.8008" fill="#FFFFFF" style="stroke:#000000;stroke-width:1;"/><path d="M535,352.8008 L535,362.8008 L545,362.8008 L535,352.8008" fill="#FFFFFF" style="stroke:#000000;stroke-width:1;"/><text fill="#000000" font-family="Verdana" font-size="13" lengthAdjust="spacing" textLength="82.6211" x="448" y="369.8677">Event name:</text><g class="message" data-participant-1="Dispatcher" data-participant-2="VaultSub"><polygon fill="#000000" points="633.0967,404.6328,643.0967,408.6328,633.0967,412.6328,637.0967,408.6328" style="stroke:#000000;stroke-width:1;"/><line style="stroke:#000000;stroke-width:1;" x1="432.5396" x2="639.0967" y1="408.6328" y2="408.6328"/><text fill="#000000" font-family="Verdana" font-size="13" lengthAdjust="spacing" textLength="188.5571" x="439.5396" y="403.5669">onVaultingSucceeded(event)</text></g><rect fill="#FFFFFF" height="3" style="stroke:#FFFFFF;stroke-width:1;" width="1473.6729" x="5" y="437.1992"/><line style="stroke:#000000;stroke-width:0.5;" x1="5" x2="1478.6729" y1="437.1992" y2="437.1992"/><line style="stroke:#000000;stroke-width:0.5;" x1="5" x2="1478.6729" y1="440.1992" y2="440.1992"/><rect fill="#FFFFFF" height="23.1328" style="stroke:#000000;stroke-width:1;" width="181.7051" x="650.9839" y="426.6328"/><text fill="#000000" font-family="Verdana" font-size="13" font-weight="bold" lengthAdjust="spacing" textLength="163.1792" x="656.9839" y="442.6997">Subscriber Processing</text><g class="message" data-participant-1="VaultSub" data-participant-2="VaultSub"><line style="stroke:#000000;stroke-width:1;" x1="655.0967" x2="697.0967" y1="484.9648" y2="484.9648"/><line style="stroke:#000000;stroke-width:1;" x1="697.0967" x2="697.0967" y1="484.9648" y2="497.9648"/><line style="stroke:#000000;stroke-width:1;" x1="656.0967" x2="697.0967" y1="497.9648" y2="497.9648"/><polygon fill="#000000" points="666.0967,493.9648,656.0967,497.9648,666.0967,501.9648,662.0967,497.9648" style="stroke:#000000;stroke-width:1;"/><text fill="#000000" font-family="Verdana" font-size="13" lengthAdjust="spacing" textLength="121.1323" x="662.0967" y="479.8989">Extract event data</text></g><path d="M805.1323,464.7656 L805.1323,504.7656 L1186.1323,504.7656 L1186.1323,474.7656 L1176.1323,464.7656 L805.1323,464.7656" fill="#FFFFFF" style="stroke:#000000;stroke-width:1;"/><path d="M1176.1323,464.7656 L1176.1323,474.7656 L1186.1323,474.7656 L1176.1323,464.7656" fill="#FFFFFF" style="stroke:#000000;stroke-width:1;"/><text fill="#000000" font-family="Verdana" font-size="13" lengthAdjust="spacing" textLength="182.165" x="811.1323" y="481.8325">$user = $event-&gt;getUser();</text><text fill="#000000" font-family="Verdana" font-size="13" lengthAdjust="spacing" textLength="360.8896" x="811.1323" y="496.9653">$payPalCustomerId = $event-&gt;getPayPalCustomerId();</text><rect fill="#FFFFFF" height="3" style="stroke:#FFFFFF;stroke-width:1;" width="1473.6729" x="5" y="530.5977"/><line style="stroke:#000000;stroke-width:0.5;" x1="5" x2="1478.6729" y1="530.5977" y2="530.5977"/><line style="stroke:#000000;stroke-width:0.5;" x1="5" x2="1478.6729" y1="533.5977" y2="533.5977"/><rect fill="#FFFFFF" height="23.1328" style="stroke:#000000;stroke-width:1;" width="206.8037" x="638.4346" y="520.0313"/><text fill="#000000" font-family="Verdana" font-size="13" font-weight="bold" lengthAdjust="spacing" textLength="188.2778" x="644.4346" y="536.0981">Save Customer ID to User</text><g class="message" data-participant-1="VaultSub" data-participant-2="UserRepository"><polygon fill="#000000" points="946.1162,570.2969,956.1162,574.2969,946.1162,578.2969,950.1162,574.2969" style="stroke:#000000;stroke-width:1;"/><line style="stroke:#000000;stroke-width:1;" x1="655.0967" x2="952.1162" y1="574.2969" y2="574.2969"/><text fill="#000000" font-family="Verdana" font-size="13" lengthAdjust="spacing" textLength="284.0195" x="662.0967" y="569.231">updatePayPalCustomerId(user, customerId)</text></g><g class="message" data-participant-1="UserRepository" data-participant-2="Database"><polygon fill="#000000" points="1080.6631,617.5625,1090.6631,621.5625,1080.6631,625.5625,1084.6631,621.5625" style="stroke:#000000;stroke-width:1;"/><line style="stroke:#000000;stroke-width:1;" x1="968.1162" x2="1086.6631" y1="621.5625" y2="621.5625"/><text fill="#000000" font-family="Verdana" font-size="13" lengthAdjust="spacing" textLength="100.5469" x="975.1162" y="616.4966">UPDATE oxuser</text></g><path d="M1097,587.2969 L1097,642.2969 L1468,642.2969 L1468,597.2969 L1458,587.2969 L1097,587.2969" fill="#FFFFFF" style="stroke:#000000;stroke-width:1;"/><path d="M1458,587.2969 L1458,597.2969 L1468,597.2969 L1458,587.2969" fill="#FFFFFF" style="stroke:#000000;stroke-width:1;"/><text fill="#000000" font-family="Verdana" font-size="13" lengthAdjust="spacing" textLength="100.5469" x="1103" y="604.3638">UPDATE oxuser</text><text fill="#000000" font-family="Verdana" font-size="13" lengthAdjust="spacing" textLength="350.0098" x="1103" y="619.4966">SET oscpaypalcustomerid = 'customer_id_abc123xyz'</text><text fill="#000000" font-family="Verdana" font-size="13" lengthAdjust="spacing" textLength="152.7563" x="1103" y="634.6294">WHERE oxid = 'user_id'</text><g class="message" data-participant-1="UserRepository" data-participant-2="VaultSub"><polygon fill="#000000" points="666.0967,664.8281,656.0967,668.8281,666.0967,672.8281,662.0967,668.8281" style="stroke:#000000;stroke-width:1;"/><line style="stroke:#000000;stroke-width:1;stroke-dasharray:2,2;" x1="660.0967" x2="962.1162" y1="668.8281" y2="668.8281"/><text fill="#000000" font-family="Verdana" font-size="13" lengthAdjust="spacing" textLength="55.3325" x="672.0967" y="663.7622">Updated</text></g><g class="message" data-participant-1="VaultSub" data-participant-2="VaultSub"><line style="stroke:#000000;stroke-width:1;" x1="655.0967" x2="697.0967" y1="702.0273" y2="702.0273"/><line style="stroke:#000000;stroke-width:1;" x1="697.0967" x2="697.0967" y1="702.0273" y2="715.0273"/><line style="stroke:#000000;stroke-width:1;" x1="656.0967" x2="697.0967" y1="715.0273" y2="715.0273"/><polygon fill="#000000" points="666.0967,711.0273,656.0967,715.0273,666.0967,719.0273,662.0967,715.0273" style="stroke:#000000;stroke-width:1;"/><text fill="#000000" font-family="Verdana" font-size="13" lengthAdjust="spacing" textLength="78.4316" x="662.0967" y="696.9614">Log success</text></g><path d="M762.4316,681.8281 L762.4316,721.8281 L989.4316,721.8281 L989.4316,691.8281 L979.4316,681.8281 L762.4316,681.8281" fill="#FFFFFF" style="stroke:#000000;stroke-width:1;"/><path d="M979.4316,681.8281 L979.4316,691.8281 L989.4316,691.8281 L979.4316,681.8281" fill="#FFFFFF" style="stroke:#000000;stroke-width:1;"/><text fill="#000000" font-family="Verdana" font-size="13" lengthAdjust="spacing" textLength="206.9971" x="768.4316" y="698.895">Log: "PayPal customer ID saved</text><text fill="#000000" font-family="Verdana" font-size="13" lengthAdjust="spacing" textLength="123.7349" x="768.4316" y="714.0278">for user {user_id}"</text><g class="message" data-participant-1="VaultSub" data-participant-2="Dispatcher"><polygon fill="#000000" points="443.5396,744.2266,433.5396,748.2266,443.5396,752.2266,439.5396,748.2266" style="stroke:#000000;stroke-width:1;"/><line style="stroke:#000000;stroke-width:1;stroke-dasharray:2,2;" x1="437.5396" x2="649.0967" y1="748.2266" y2="748.2266"/><text fill="#000000" font-family="Verdana" font-size="13" lengthAdjust="spacing" textLength="93.9326" x="449.5396" y="743.1606">Event handled</text></g><path d="M62,761.2266 L62,831.2266 L1176,831.2266 L1176,771.2266 L1166,761.2266 L62,761.2266" fill="#FFFFFF" style="stroke:#000000;stroke-width:1;"/><path d="M1166,761.2266 L1166,771.2266 L1176,771.2266 L1166,761.2266" fill="#FFFFFF" style="stroke:#000000;stroke-width:1;"/><text fill="#000000" font-family="Verdana" font-size="13" font-weight="bold" lengthAdjust="spacing" textLength="135.9287" x="442.5166" y="778.2935">Vaulting Complete</text><text fill="#000000" font-family="Verdana" font-size="13" lengthAdjust="spacing" textLength="277.4561" x="442.5166" y="793.4263">Customer ID is now stored in oxuser table.</text><text fill="#000000" font-family="Verdana" font-size="13" lengthAdjust="spacing" textLength="344.0303" x="442.5166" y="808.5591">Future purchases can use vaulted payment methods</text><text fill="#000000" font-family="Verdana" font-size="13" lengthAdjust="spacing" textLength="210.1392" x="442.5166" y="823.6919">by referencing this customer ID.</text><!--SRC=[XLNRQXin47tNLqnDmB5936tVjZXGR8S62ZLnahu4WhoQU0MxqY9f7Rkb_zwHzhvsqnVR6itbd9apyWUNO8QGfrmgnfnqASAQ7zSyVU95wgJQROeuHXGeLdjK3gvXeRCyHOTmc-etnd9kd8nbpkcoZFnX19hQIsoAhOsDtA81RY7SaQaNDjeSirUjZiygr5XActCN9sX6FgGzdgdLeknM2TPXbKUBvXvpRQNJviW4TtpBBSAo-i5O3GwkRngW4TGbG12Tc1Wn7ZkvvzI1XetIT39obpW6S947Q8l2EfsXkHEG6xH4ZEwa0ks38EQvAmm5eSsrekge1FWqZCtdi33eytEorVHR7EKWvlD_0Qw2tnjZ7x32jtUzBya7eA3-HN3Xlww2OKWpEcLEVXD67wi3ztA0kBg1ksL4vb5zVf7YXM_ZZvy-7uw_HfrUT1csGeX0LBylqGEyUbPZRUCPbSzvEjjNB6QsfZ6Uj4FhwAdNXRAjYcVeeVqdNmTYcy-3hAKNWLOdtIpHJfZ0SsWwraPOZQMHj9T7H-rhesEqrkl2Aw9swqDP7PoXJ13AWrV-GB5-g327Y-1mVRD3vxVbSlBbh9nxZkl1hG_gQNd3zmYBTl3WTDZ54xpz1OsWo0afdkGF0coKT2SwensiEEkVWuQgPO_WSRty-h02VV3v-kteNm5iLWz0SYZLK1UMlW_Zim8UKypFRwjxdw9qyud8fIkR8RRUm1u3TT6Ln93R-Kb_rpi8AhMspuak8XYLpUok8LWQZz_JLst2YiFl2koVxXwsrGQBM6vDGYzLsiVR2ZRWq7jANSlwgdrq0QRJvcMh_pIcKx9t9ICjuNW3CXWKuH4Dim5AakACd6-By9hcXOaJIclfVLMU3eJTfHWQNkQHPkWIBIo5R8_q-BwYGHNxsYwX8ft6p5hsVm40]--></g></svg>